# Blender v2.79 (sub 0) OBJ File: 'texturedCube.blend'
# www.blender.org
o Cube
v 1.000000 -1.000000 -1.000000
v 1.000000 -1.000000 1.000000
v -1.000000 -1.000000 1.000000
v -1.000000 -1.000000 -1.000000
v 1.000000 1.000000 -0.999999
v 0.999999 1.000000 1.000001
v -1.000000 1.000000 1.000000
v -1.000000 1.000000 -1.000000
vt 0.637094 0.271130
vt 0.887050 0.012352
vt 0.887050 0.271130
vt 0.144397 0.008617
vt 0.394353 0.267395
vt 0.144397 0.267395
vt 0.908696 0.918354
vt 0.658740 0.659576
vt 0.908696 0.659576
vt 0.066050 0.913560
vt 0.907673 0.658518
vt 0.907673 0.917296
vt 0.590193 0.565141
vt 0.840149 0.306363
vt 0.840149 0.565141
vt 0.111388 0.584875
vt 0.361344 0.326097
vt 0.361344 0.584875
vt 0.637094 0.012352
vt 0.394353 0.008617
vt 0.658740 0.918354
vt 0.066050 0.654782
vt 0.590193 0.306363
vt 0.111388 0.326097
vn 0.0000 -1.0000 0.0000
vn 0.0000 1.0000 0.0000
vn 1.0000 -0.0000 0.0000
vn 0.0000 -0.0000 1.0000
vn -1.0000 -0.0000 -0.0000
vn 0.0000 0.0000 -1.0000
s off
f 2/1/1 4/2/1 1/3/1
f 8/4/2 6/5/2 5/6/2
f 5/7/3 2/8/3 1/9/3
f 6/10/4 3/11/4 2/12/4
f 3/13/5 8/14/5 4/15/5
f 1/16/6 8/17/6 5/18/6
f 2/1/1 3/19/1 4/2/1
f 8/4/2 7/20/2 6/5/2
f 5/7/3 6/21/3 2/8/3
f 6/10/4 7/22/4 3/11/4
f 3/13/5 7/23/5 8/14/5
f 1/16/6 4/24/6 8/17/6
