# Blender v2.79 (sub 0) OBJ File: ''
# www.blender.org
mtllib textured_cube.mtl
o Cube
v 1.000000 -1.000000 -1.000000
v 1.000000 -1.000000 1.000000
v -1.000000 -1.000000 1.000000
v -1.000000 -1.000000 -1.000000
v 1.000000 1.000000 -0.999999
v 0.999999 1.000000 1.000001
v -1.000000 1.000000 1.000000
v -1.000000 1.000000 -1.000000
vt 0.444177 0.666635
vt 0.666219 0.333365
vt 0.666219 0.666635
vt 0.000094 0.333365
vt 0.222136 0.666635
vt 0.000094 0.666636
vt 0.666219 0.999906
vt 0.444177 0.333365
vt 0.666219 0.000094
vt 0.888260 0.333365
vt 0.888260 0.666635
vt 0.222136 0.333365
vt 0.444177 0.999906
vt 0.444177 0.000094
vn 0.0000 -1.0000 0.0000
vn 0.0000 1.0000 0.0000
vn 1.0000 -0.0000 0.0000
vn 0.0000 -0.0000 1.0000
vn -1.0000 -0.0000 -0.0000
vn 0.0000 0.0000 -1.0000
usemtl Material
s off
f 2/1/1 4/2/1 1/3/1
f 8/4/2 6/5/2 5/6/2
f 5/7/3 2/1/3 1/3/3
f 6/5/4 3/8/4 2/1/4
f 3/8/5 8/9/5 4/2/5
f 1/3/6 8/10/6 5/11/6
f 2/1/1 3/8/1 4/2/1
f 8/4/2 7/12/2 6/5/2
f 5/7/3 6/13/3 2/1/3
f 6/5/4 7/12/4 3/8/4
f 3/8/5 7/14/5 8/9/5
f 1/3/6 4/2/6 8/10/6
